<svg xmlns="http://www.w3.org/2000/svg" width="38.535" height="37.949" viewBox="0 0 38.535 37.949">
  <path id="Tracé_479" data-name="Tracé 479" d="M37.223,15.8H33.37a2.3,2.3,0,0,0-2.312,2.277v1.138H25.663V15.735l4.173-4.109h5.076a2.3,2.3,0,0,0,2.312-2.277V5.554a2.3,2.3,0,0,0-2.312-2.277H31.058a2.3,2.3,0,0,0-2.312,2.277v5l-4.173,4.109H21.038V9.349h1.156a2.3,2.3,0,0,0,2.312-2.277V3.277A2.3,2.3,0,0,0,22.194,1H18.341a2.3,2.3,0,0,0-2.312,2.277V7.072a2.3,2.3,0,0,0,2.312,2.277H19.5v5.313H15.963L11.79,10.553v-5A2.3,2.3,0,0,0,9.478,3.277H5.624A2.3,2.3,0,0,0,3.312,5.554V9.349a2.3,2.3,0,0,0,2.312,2.277H10.7l4.173,4.109v3.481H9.478V18.077A2.3,2.3,0,0,0,7.166,15.8H3.312A2.3,2.3,0,0,0,1,18.077v3.795a2.3,2.3,0,0,0,2.312,2.277H7.166a2.3,2.3,0,0,0,2.312-2.277V20.734h5.395v3.481L10.7,28.324H5.624A2.3,2.3,0,0,0,3.312,30.6V34.4a2.3,2.3,0,0,0,2.312,2.277H9.478A2.3,2.3,0,0,0,11.79,34.4v-5l4.173-4.109H19.5V30.6H18.341a2.3,2.3,0,0,0-2.312,2.277v3.795a2.3,2.3,0,0,0,2.312,2.277h3.854a2.3,2.3,0,0,0,2.312-2.277V32.878A2.3,2.3,0,0,0,22.194,30.6H21.038V25.288h3.534L28.745,29.4v5a2.3,2.3,0,0,0,2.312,2.277h3.854A2.3,2.3,0,0,0,37.223,34.4V30.6a2.3,2.3,0,0,0-2.312-2.277H29.835l-4.173-4.109V20.734h5.395v1.138a2.3,2.3,0,0,0,2.312,2.277h3.854a2.3,2.3,0,0,0,2.312-2.277V18.077A2.3,2.3,0,0,0,37.223,15.8ZM30.287,5.554a.765.765,0,0,1,.771-.759h3.854a.765.765,0,0,1,.771.759V9.349a.765.765,0,0,1-.771.759H30.287ZM10.248,10.108H5.624a.765.765,0,0,1-.771-.759V5.554a.765.765,0,0,1,.771-.759H9.478a.765.765,0,0,1,.771.759ZM7.936,21.872a.765.765,0,0,1-.771.759H3.312a.765.765,0,0,1-.771-.759V18.077a.765.765,0,0,1,.771-.759H7.166a.765.765,0,0,1,.771.759ZM10.248,34.4a.765.765,0,0,1-.771.759H5.624a.765.765,0,0,1-.771-.759V30.6a.765.765,0,0,1,.771-.759h4.624ZM18.341,7.831a.765.765,0,0,1-.771-.759V3.277a.765.765,0,0,1,.771-.759h3.854a.765.765,0,0,1,.771.759V7.072a.765.765,0,0,1-.771.759Zm3.854,24.288a.765.765,0,0,1,.771.759v3.795a.765.765,0,0,1-.771.759H18.341a.765.765,0,0,1-.771-.759V32.878a.765.765,0,0,1,.771-.759Zm1.927-8.349H16.414V16.18h7.707Zm6.166,6.072h4.624a.765.765,0,0,1,.771.759V34.4a.765.765,0,0,1-.771.759H31.058a.765.765,0,0,1-.771-.759Zm7.707-7.969a.765.765,0,0,1-.771.759H33.37a.765.765,0,0,1-.771-.759V18.077a.765.765,0,0,1,.771-.759h3.854a.765.765,0,0,1,.771.759Z" transform="translate(-1 -1)" fill="#fff"/>
</svg>
